<?xml version="1.0" encoding="UTF-8" standalone="no"?>
<!DOCTYPE svg PUBLIC "-//W3C//DTD SVG 1.1//EN" "http://www.w3.org/Graphics/SVG/1.1/DTD/svg11.dtd">
<svg width="100%" height="100%" viewBox="0 0 79 79" version="1.1" xmlns="http://www.w3.org/2000/svg" xmlns:xlink="http://www.w3.org/1999/xlink" xml:space="preserve" xmlns:serif="http://www.serif.com/" style="fill-rule:evenodd;clip-rule:evenodd;stroke-linejoin:round;stroke-miterlimit:2;">
    <g id="Regular-S" transform="matrix(1,0,0,1,-6.83594,74.6582)">
        <path d="M46.24,4.15C51.644,4.15 56.722,3.125 61.475,1.074C66.227,-0.977 70.418,-3.825 74.048,-7.471C77.677,-11.117 80.526,-15.316 82.593,-20.068C84.66,-24.821 85.693,-29.883 85.693,-35.254C85.693,-40.625 84.66,-45.687 82.593,-50.44C80.526,-55.192 77.669,-59.391 74.023,-63.037C70.378,-66.683 66.178,-69.531 61.426,-71.582C56.673,-73.633 51.595,-74.658 46.191,-74.658C40.82,-74.658 35.759,-73.633 31.006,-71.582C26.253,-69.531 22.07,-66.683 18.457,-63.037C14.844,-59.391 12.004,-55.192 9.937,-50.44C7.869,-45.687 6.836,-40.625 6.836,-35.254C6.836,-29.883 7.869,-24.821 9.937,-20.068C12.004,-15.316 14.852,-11.117 18.481,-7.471C22.111,-3.825 26.302,-0.977 31.055,1.074C35.807,3.125 40.869,4.15 46.24,4.15Z" style="fill:rgb(0,122,255);fill-rule:nonzero;"/>
        <path d="M41.943,-16.406C41.195,-16.406 40.503,-16.577 39.868,-16.919C39.233,-17.261 38.623,-17.806 38.037,-18.555L28.955,-29.932C28.272,-30.811 27.93,-31.755 27.93,-32.764C27.93,-33.74 28.263,-34.587 28.931,-35.303C29.598,-36.019 30.436,-36.377 31.445,-36.377C32.064,-36.377 32.633,-36.247 33.154,-35.986C33.675,-35.726 34.196,-35.238 34.717,-34.522L41.748,-25.098L57.324,-50.342C58.138,-51.676 59.18,-52.344 60.449,-52.344C61.393,-52.344 62.248,-52.051 63.013,-51.465C63.778,-50.879 64.16,-50.065 64.16,-49.023C64.16,-48.535 64.038,-48.039 63.794,-47.534C63.55,-47.03 63.298,-46.549 63.037,-46.094L45.606,-18.555C44.727,-17.122 43.506,-16.406 41.943,-16.406Z" style="fill:white;fill-rule:nonzero;"/>
    </g>
</svg>
